<svg xmlns="http://www.w3.org/2000/svg" width="36" height="30" viewBox="0 0 36 30">
  <defs>
    <style>
      .cls-1 {
        fill: #7c829d;
        fill-rule: evenodd;
      }
    </style>
  </defs>
  <path id="shangmen" class="cls-1" d="M501.014,808L499,806.856V825a1,1,0,0,1-1,1H470a1,1,0,0,1-1-1V806.856L466.986,808l-0.972-1.785,17.959-10.19,0.013-.023L484,796.009l0.014-.008,0.013,0.023,17.959,10.19ZM481,824h6V814h-6v10Zm3-25.654L472.272,805h23.456Zm13,7.375L495.728,805H472.272l-1.272.721V824h8V814h-1a1,1,0,0,1,0-2h12a1,1,0,0,1,0,2h-1v10h8V805.721Z" transform="translate(-466 -796)"/>
</svg>
