<svg xmlns="http://www.w3.org/2000/svg" width="26" height="26" viewBox="0 0 26 26">
  <defs>
    <style>
      .cls-1 {
        fill: #cacee0;
        fill-rule: evenodd;
      }
    </style>
  </defs>
  <path id="wenhao" class="cls-1" d="M200,460a13,13,0,1,1,13-13A13,13,0,0,1,200,460Zm-0.659-5.077a1.282,1.282,0,0,0,.946.374,1.383,1.383,0,0,0,.946-0.374,1.283,1.283,0,0,0,.374-0.946,1.255,1.255,0,0,0-.374-0.924,1.285,1.285,0,0,0-.946-0.374,1.237,1.237,0,0,0-.946.374,1.178,1.178,0,0,0-.4.924A1.291,1.291,0,0,0,199.341,454.923Zm4.642-14.476a4.733,4.733,0,0,0-3.388-1.166,4.826,4.826,0,0,0-3.7,1.452,5.236,5.236,0,0,0-1.3,3.7h1.76a4.137,4.137,0,0,1,.7-2.53,2.863,2.863,0,0,1,2.442-1.078,2.949,2.949,0,0,1,2.178.77,2.767,2.767,0,0,1,.726,2.046,2.832,2.832,0,0,1-.638,1.738q-0.309.353-.748,0.792a8.553,8.553,0,0,0-2.222,2.552,4.135,4.135,0,0,0-.418,1.914v0.506h1.782v-0.506a3.124,3.124,0,0,1,.418-1.628,4.115,4.115,0,0,1,1.012-1.188,22.732,22.732,0,0,0,1.8-1.694,4.275,4.275,0,0,0,.814-2.574A3.985,3.985,0,0,0,203.983,440.447Z" transform="translate(-187 -434)"/>
</svg>
