<svg xmlns="http://www.w3.org/2000/svg" width="40" height="44" viewBox="0 0 40 44">
  <defs>
    <style>
      .cls-1 {
        fill: #cacee0;
        fill-rule: evenodd;
      }
    </style>
  </defs>
  <path id="主页" class="cls-1" d="M178,2470h-8a2,2,0,0,1-2-2v-14a4,4,0,0,0-4-4h-4a4,4,0,0,0-4,4v14a2,2,0,0,1-2,2h-8a4,4,0,0,1-4-4v-22.56c0-.03,0-0.06,0-0.09V2443h0.041a2.814,2.814,0,0,1,.8-1.67l17.078-14.5a2.95,2.95,0,0,1,4.139,0l17.078,14.5a2.816,2.816,0,0,1,.8,1.67H182v23A4,4,0,0,1,178,2470Z" transform="translate(-142 -2426)"/>
</svg>
