<svg id="图层_1" data-name="图层 1" xmlns="http://www.w3.org/2000/svg" viewBox="0 0 67.08 75.53"><defs><style>.cls-1{fill:#fabe00;}</style></defs><title>卖</title><path class="cls-1" d="M591.44,385.53,564.1,369.75a6.2,6.2,0,0,0-6.2,0l-27.33,15.78a6.2,6.2,0,0,0-3.1,5.37v31.56a6.2,6.2,0,0,0,3.1,5.37l27.33,15.78a6.2,6.2,0,0,0,6.2,0l27.33-15.78a6.2,6.2,0,0,0,3.1-5.37V390.9A6.2,6.2,0,0,0,591.44,385.53Zm-43.52,13.78h11.62v-2.4h-9.28v-2.75h9.28v-2.27h2.94v2.27h9.09v2.75h-9.09v2.4H573.7v1.89a41.75,41.75,0,0,1-2,6.43l-2.85-.8a25.54,25.54,0,0,0,1.73-4.74H547.91Zm11.94,5.89-1.54,2.3a33.79,33.79,0,0,0-6.53-2.72l1.44-2.11A35.42,35.42,0,0,1,559.85,405.2Zm14.59,8.74H563l-.42.67a71.77,71.77,0,0,1,11.17,4.22l-1.7,2.66a64.17,64.17,0,0,0-11.23-4.83l-.1.1q-3.55,3-11.39,4.64l-1.6-2.59q7.94-1.57,10.82-4,.61-.61.86-.9h-11.9V411h7.74a31.21,31.21,0,0,0-6.24-2.91L550.5,406a32,32,0,0,1,6.59,2.88L555.69,411h5.44a10.73,10.73,0,0,0,.58-2.85V403h2.91v5.18a14.74,14.74,0,0,1-.42,2.85h10.24Z" transform="translate(-527.46 -368.92)"/></svg>