<svg xmlns="http://www.w3.org/2000/svg" width="36" height="36" viewBox="0 0 36 36">
  <defs>
    <style>
      .cls-1 {
        fill: #292e3e;
        fill-rule: evenodd;
      }
    </style>
  </defs>
  <path id="dingwei" class="cls-1" d="M711,296h-1.05A15.979,15.979,0,0,1,695,310.951V312a1,1,0,0,1-2,0v-1.049A15.979,15.979,0,0,1,678.05,296H677a1,1,0,0,1,0-2h1.05A15.979,15.979,0,0,1,693,279.049V278a1,1,0,0,1,2,0v1.049A15.979,15.979,0,0,1,709.95,294H711A1,1,0,0,1,711,296Zm-4-2h0.95A13.986,13.986,0,0,0,695,281.048V282a1,1,0,0,1-2,0v-0.952A13.986,13.986,0,0,0,680.05,294H681a1,1,0,0,1,0,2h-0.95A13.986,13.986,0,0,0,693,308.952V308a1,1,0,0,1,2,0v0.952A13.986,13.986,0,0,0,707.95,296H707A1,1,0,0,1,707,294Zm-13,8a7,7,0,1,1,7-7A7,7,0,0,1,694,302Zm0-12a5,5,0,1,0,5,5A5,5,0,0,0,694,290Z" transform="translate(-676 -277)"/>
</svg>
