<svg xmlns="http://www.w3.org/2000/svg" width="44" height="44" viewBox="0 0 44 44">
  <defs>
    <style>
      .cls-1 {
        fill: #ff5c7f;
        fill-rule: evenodd;
      }
    </style>
  </defs>
  <path id="电话" class="cls-1" d="M395,720.722V721h-8a2,2,0,0,1-2-2v-3a1.993,1.993,0,0,1,.027-0.269,23.627,23.627,0,0,0-22.054,0A1.993,1.993,0,0,1,363,716v3a2,2,0,0,1-2,2h-8v-0.278A1.991,1.991,0,0,1,352,719v-3a1.994,1.994,0,0,1,1-1.723v-0.058a30.938,30.938,0,0,1,42,0v0.058A1.994,1.994,0,0,1,396,716v3A1.991,1.991,0,0,1,395,720.722ZM357,726a2,2,0,0,1,2-2h7v-2.5a1.5,1.5,0,0,1,3,0V724h10v-2.5a1.5,1.5,0,0,1,3,0V724h8a2,2,0,0,1,2,2s1.222,7.069,2,12c0.483,3.06,1,6,1,6a6,6,0,0,1-6,6H360a6,6,0,0,1-6-6s0.446-2.873,1-6C355.893,732.956,357,726,357,726Zm17.5,20a8.5,8.5,0,1,0-8.5-8.5A8.5,8.5,0,0,0,374.5,746Zm0-15a6.5,6.5,0,1,1-6.5,6.5A6.5,6.5,0,0,1,374.5,731Z" transform="translate(-352 -706)"/>
</svg>
